<svg width="13" height="12" viewBox="0 0 13 12" fill="none" xmlns="http://www.w3.org/2000/svg">
<path fill-rule="evenodd" clip-rule="evenodd" d="M0.75 5.25003C0.551087 5.25003 0.360322 5.32905 0.21967 5.4697C0.0790175 5.61035 -2.38221e-07 5.80112 -2.29526e-07 6.00003C-2.20831e-07 6.19894 0.0790176 6.38971 0.21967 6.53036C0.360322 6.67101 0.551087 6.75003 0.75 6.75003L9.4395 6.75003L6.219 9.96903C6.07817 10.1099 5.99905 10.3009 5.99905 10.5C5.99905 10.6992 6.07817 10.8902 6.219 11.031C6.35983 11.1719 6.55084 11.251 6.75 11.251C6.94916 11.251 7.14017 11.1719 7.281 11.031L11.781 6.53103C11.8508 6.46136 11.9063 6.3786 11.9441 6.28748C11.9819 6.19636 12.0013 6.09868 12.0013 6.00003C12.0013 5.90138 11.9819 5.8037 11.9441 5.71258C11.9063 5.62146 11.8508 5.5387 11.781 5.46903L7.281 0.969027C7.14017 0.828197 6.94916 0.74908 6.75 0.74908C6.55084 0.74908 6.35983 0.828197 6.219 0.969027C6.07817 1.10986 5.99905 1.30086 5.99905 1.50003C5.99905 1.69919 6.07817 1.8902 6.219 2.03103L9.4395 5.25003L0.75 5.25003Z" fill="url(#paint0_linear)"/>
<defs>
<linearGradient id="paint0_linear" x1="5.68485" y1="11.251" x2="5.77507" y2="0.744431" gradientUnits="userSpaceOnUse">
<stop stop-color="#4A5DEA"/>
<stop offset="1" stop-color="#914AFF"/>
</linearGradient>
</defs>
</svg>
