<svg width="44" height="19" viewBox="0 0 44 19" fill="none" xmlns="http://www.w3.org/2000/svg">
<rect width="44" height="19" rx="9.5" fill="url(#paint0_linear)"/>
<path d="M12.8879 11.612C12.8879 12.416 12.3239 12.884 11.3999 12.884H9.55191V10.28H11.3519C12.2639 10.28 12.8879 10.784 12.8879 11.612ZM12.6719 7.976C12.6719 8.744 12.1319 9.164 11.2439 9.164H9.55191V6.776H11.2439C12.1319 6.776 12.6719 7.22 12.6719 7.976ZM14.2559 11.756C14.2559 10.76 13.5359 9.872 12.6479 9.716C13.4519 9.428 14.0639 8.816 14.0639 7.808C14.0639 6.632 13.1279 5.66 11.3639 5.66H8.18391V14H11.5199C13.2239 14 14.2559 13.028 14.2559 11.756ZM20.8305 5.648H16.2225V14H20.8305V12.884H17.5905V10.328H20.4705V9.212H17.5905V6.764H20.8305V5.648ZM22.5635 6.776H24.7955V14H26.1635V6.776H28.3835V5.66H22.5635V6.776ZM35.8769 14H37.3169L34.3289 5.648H32.7449L29.7569 14H31.1849L31.7849 12.296H35.2769L35.8769 14ZM34.8929 11.18H32.1689L33.5369 7.304L34.8929 11.18Z" fill="white"/>
<defs>
<linearGradient id="paint0_linear" x1="-8.51374e-10" y1="9" x2="44" y2="10" gradientUnits="userSpaceOnUse">
<stop stop-color="#4A5DEA"/>
<stop offset="1" stop-color="#914AFF"/>
</linearGradient>
</defs>
</svg>
